<svg width="1600" height="1000" viewBox="0 0 1600 1000" fill="none" xmlns="http://www.w3.org/2000/svg">
  <defs>
    <linearGradient id="heroBg" x1="0" y1="0" x2="1600" y2="1000" gradientUnits="userSpaceOnUse">
      <stop stop-color="#5E5AF7"/>
      <stop offset="1" stop-color="#00C7FF"/>
    </linearGradient>
    <linearGradient id="heroGlass" x1="360" y1="210" x2="1240" y2="790" gradientUnits="userSpaceOnUse">
      <stop stop-color="white" stop-opacity="0.46"/>
      <stop offset="1" stop-color="white" stop-opacity="0.08"/>
    </linearGradient>
  </defs>
  <rect width="1600" height="1000" rx="44" fill="#090E1A"/>
  <rect width="1600" height="1000" rx="44" fill="url(#heroBg)" fill-opacity="0.28"/>
  <rect x="220" y="150" width="1160" height="700" rx="30" fill="url(#heroGlass)" stroke="white" stroke-opacity="0.34"/>
  <rect x="300" y="260" width="420" height="22" rx="11" fill="white" fill-opacity="0.62"/>
  <rect x="300" y="318" width="340" height="18" rx="9" fill="white" fill-opacity="0.4"/>
  <rect x="300" y="372" width="180" height="52" rx="16" fill="white" fill-opacity="0.55"/>
  <rect x="800" y="280" width="500" height="420" rx="24" fill="white" fill-opacity="0.2"/>
  <rect x="840" y="326" width="180" height="12" rx="6" fill="white" fill-opacity="0.52"/>
  <rect x="840" y="368" width="250" height="12" rx="6" fill="white" fill-opacity="0.38"/>
  <rect x="840" y="410" width="210" height="12" rx="6" fill="white" fill-opacity="0.3"/>
  <rect x="840" y="590" width="400" height="60" rx="18" fill="white" fill-opacity="0.22"/>
  <text x="800" y="930" text-anchor="middle" fill="white" fill-opacity="0.78" font-family="Inter, Arial, sans-serif" font-size="42" font-weight="700"></text>
</svg>
